<?xml version="1.0" standalone="no"?>
<!DOCTYPE svg PUBLIC "-//W3C//DTD SVG 20010904//EN"
 "http://www.w3.org/TR/2001/REC-SVG-20010904/DTD/svg10.dtd">
<svg version="1.0" xmlns="http://www.w3.org/2000/svg"
 width="181.000000pt" height="256.000000pt" viewBox="0 0 181.000000 256.000000"
 preserveAspectRatio="xMidYMid meet">

<g transform="translate(0.000000,256.000000) scale(0.100000,-0.100000)"
fill="#000000" stroke="none">
<path d="M420 2550 c0 -6 13 -40 29 -75 l30 -65 -47 -20 c-25 -11 -61 -32 -80
-46 -43 -33 -117 -133 -132 -179 -6 -19 -36 -61 -67 -92 -89 -93 -153 -198
-153 -250 0 -23 5 -18 23 27 30 72 77 141 148 213 32 34 61 74 67 95 15 47 91
144 144 182 23 17 59 35 80 42 21 6 38 17 38 24 0 7 -11 35 -25 62 -14 28 -25
52 -25 55 0 3 19 -5 43 -18 51 -30 97 -31 197 -5 41 11 97 20 124 20 45 0 196
-39 222 -57 5 -5 21 -34 33 -66 13 -31 41 -87 63 -123 22 -36 37 -69 33 -72
-3 -3 -128 -9 -278 -12 -150 -4 -216 -7 -147 -8 69 -1 161 -5 205 -8 44 -3
118 -1 165 4 83 10 85 10 115 -15 16 -15 68 -44 115 -65 104 -48 128 -46 199
18 l51 46 11 -29 c6 -15 16 -54 22 -85 8 -45 15 -58 32 -62 38 -10 101 -80
119 -132 9 -27 19 -88 23 -137 6 -86 5 -88 -31 -162 -43 -86 -126 -176 -204
-218 -29 -16 -52 -24 -52 -18 0 5 5 13 10 16 6 4 7 11 4 17 -6 9 -77 4 -110
-9 -11 -4 -12 2 -8 26 6 29 4 31 -20 31 -15 0 -35 -4 -45 -10 -10 -5 -41 -18
-69 -29 -70 -28 -59 -6 24 49 91 60 147 127 200 239 26 53 50 104 55 113 10
20 10 141 0 177 -4 14 -11 26 -17 28 -7 2 -10 -35 -10 -110 l1 -114 -45 -89
c-32 -65 -63 -107 -112 -158 -38 -38 -71 -67 -73 -64 -3 3 5 27 17 54 31 72
32 222 0 319 -36 109 -61 140 -129 160 -45 13 -69 29 -112 71 -58 58 -65 61
-78 41 -4 -7 -35 -29 -67 -47 -33 -19 -55 -35 -49 -37 7 -3 22 1 33 7 12 6 24
10 26 7 6 -6 -69 -57 -84 -57 -22 0 -45 -48 -38 -80 5 -27 3 -30 -17 -26 -12
3 -39 8 -59 11 -34 5 -36 8 -26 24 21 35 -24 80 -104 105 -21 6 -23 41 -6 97
6 22 9 42 6 45 -13 13 -92 -20 -130 -54 -49 -44 -109 -165 -135 -271 -15 -62
-21 -74 -49 -90 -24 -14 -36 -32 -45 -63 -7 -24 -14 -45 -16 -47 -6 -8 -35 25
-54 60 -47 94 3 311 100 433 38 48 32 60 -10 20 -65 -62 -129 -239 -129 -359
0 -73 34 -153 73 -174 16 -9 27 -23 27 -35 0 -12 9 -36 20 -53 l20 -33 -24 0
c-13 0 -50 13 -81 30 -63 33 -79 32 -64 -7 5 -14 8 -27 6 -29 -9 -10 -75 35
-94 65 -22 32 -23 33 -23 9 0 -29 32 -61 82 -83 48 -19 72 -20 64 0 -21 52
-22 50 17 28 20 -12 58 -26 84 -31 30 -5 66 -22 95 -44 42 -33 141 -78 169
-78 7 0 9 -13 5 -37 l-7 -38 21 45 c12 25 35 59 52 77 30 31 30 31 52 12 l21
-20 -38 -32 c-35 -30 -39 -38 -47 -105 -11 -87 -2 -114 48 -138 71 -34 246 -1
327 60 38 29 44 25 55 -36 5 -27 3 -41 -6 -49 -11 -9 -14 -7 -15 12 -1 13 -5
-3 -10 -36 -14 -97 -38 -168 -54 -161 -8 3 -17 1 -20 -4 -4 -6 -13 -7 -23 -1
-9 4 -23 6 -29 4 -17 -6 -16 8 2 103 15 79 13 114 -3 53 l-8 -34 -97 -3 c-58
-2 -97 1 -97 7 0 5 -10 13 -22 17 -66 20 -117 91 -118 164 -1 32 -2 33 -11 12
-6 -15 -5 -31 2 -45 9 -20 9 -20 -4 -4 -13 16 -16 14 -41 -25 -26 -42 -26 -42
-2 -13 14 16 27 27 29 25 1 -3 15 -20 30 -38 34 -42 34 -49 0 -45 -16 2 -45
-5 -65 -15 -25 -13 -39 -16 -42 -8 -2 6 -5 3 -5 -7 -1 -11 -10 -30 -21 -44
-27 -34 -27 -105 0 -148 20 -33 80 -65 121 -65 11 0 31 -7 45 -16 l25 -17 -73
-49 c-40 -27 -94 -60 -120 -73 -44 -23 -49 -24 -89 -10 -55 20 -59 19 -59 -10
0 -46 98 -211 160 -270 l30 -29 78 42 c42 22 129 70 192 106 107 62 172 84
154 54 -16 -27 -90 -126 -133 -178 -25 -30 -46 -57 -48 -59 -1 -1 -12 4 -25
13 -26 18 -58 21 -58 5 0 -44 120 -269 143 -269 5 0 -8 22 -27 49 -47 64 -118
221 -100 221 3 0 19 -7 37 -16 l31 -17 33 39 c19 22 58 71 89 111 52 69 56 72
82 62 91 -34 322 -183 322 -208 0 -12 -74 -72 -175 -144 -99 -70 -132 -96
-122 -97 11 0 155 105 279 203 54 44 151 136 215 205 86 94 124 128 144 130
33 4 39 30 39 189 0 169 -53 410 -116 522 -33 60 -31 78 9 84 40 6 45 2 28
-24 -21 -35 -4 -34 73 4 87 43 187 143 229 227 25 50 27 64 27 174 0 106 -3
127 -24 171 -23 50 -78 108 -113 119 -13 4 -22 23 -30 65 -6 33 -18 74 -26 91
-15 30 -15 33 14 77 43 69 69 147 69 207 0 77 -12 83 -94 46 l-66 -30 -51 35
c-74 51 -161 69 -269 56 -14 -1 -36 0 -50 4 -24 7 -24 7 -8 -11 15 -15 31 -18
102 -15 97 3 149 -9 197 -44 65 -47 75 -50 118 -30 35 15 43 16 70 4 40 -18
41 -49 4 -133 -49 -111 -120 -198 -188 -230 -32 -16 -35 -15 -115 25 -141 69
-215 164 -286 368 -13 36 -28 67 -35 70 -12 4 -10 -13 7 -53 6 -17 5 -18 -12
-11 -47 20 -153 44 -199 44 -27 1 -87 -8 -133 -19 -116 -28 -150 -26 -203 10
-46 31 -69 37 -69 20z m152 -505 c-7 -56 -9 -60 -38 -65 -17 -4 -49 -17 -72
-30 -23 -13 -44 -21 -48 -18 -8 9 41 100 68 125 21 20 89 55 95 49 2 -1 -1
-29 -5 -61z m527 -75 c1 -3 -32 -5 -72 -5 -58 0 -81 -5 -116 -25 -52 -29 -71
-54 -54 -71 8 -8 23 -4 57 16 96 56 207 42 294 -39 41 -37 45 -39 57 -23 12
16 15 13 31 -30 14 -36 19 -74 19 -153 -1 -94 -4 -112 -30 -168 -26 -57 -34
-66 -84 -92 -58 -29 -152 -60 -182 -60 -24 0 -34 47 -14 76 8 13 15 35 15 49
0 24 -2 25 -64 25 -60 0 -64 1 -70 26 -4 15 -2 33 6 42 7 10 8 14 4 10 -5 -5
-15 1 -23 12 -18 26 -76 26 -143 1 -27 -11 -50 -17 -50 -15 0 3 -6 0 -12 -6
-7 -6 -31 -21 -53 -33 -48 -27 -81 -74 -90 -127 -4 -22 -11 -40 -16 -40 -32 0
-126 48 -170 88 -59 53 -79 92 -79 156 0 61 14 94 50 114 21 12 33 29 41 57
21 81 51 165 59 165 4 0 6 -9 3 -20 -9 -33 22 -34 68 -1 54 40 106 42 132 5
18 -24 18 -25 -7 -55 -14 -17 -26 -39 -26 -49 0 -9 -3 -31 -6 -47 -4 -23 0
-36 18 -58 21 -24 29 -27 61 -21 48 9 70 43 71 107 l1 49 73 -6 c39 -4 72 -3
72 1 0 5 -9 19 -21 31 -30 32 -18 57 44 92 29 17 67 46 86 66 l34 35 43 -37
c23 -20 43 -39 43 -42z m147 -65 c24 -36 14 -38 -19 -4 -20 21 -24 29 -13 29
9 0 23 -11 32 -25z m-586 0 c20 -24 6 -28 -15 -5 -10 11 -13 20 -8 20 6 0 16
-7 23 -15z m-23 -99 c-4 -9 -13 -16 -22 -16 -18 0 -19 5 -4 32 13 24 35 9 26
-16z m63 -64 c0 -16 -24 -41 -46 -46 -29 -8 -54 8 -54 33 0 14 10 17 50 17 28
0 50 -2 50 -4z m108 -234 c21 -21 14 -54 -14 -67 -32 -14 -33 -13 -41 32 -5
35 -3 37 38 46 3 0 10 -4 17 -11z m195 -78 c-8 -31 -22 -34 -44 -11 -21 22
-39 27 -39 11 0 -5 4 -10 9 -10 21 0 52 -71 57 -132 5 -55 3 -67 -18 -98 -31
-46 -90 -77 -180 -96 -81 -17 -148 -13 -186 12 -24 16 -24 19 -18 98 6 68 11
85 32 107 14 15 38 29 54 33 16 3 73 26 127 52 84 40 181 67 205 57 3 -2 4
-12 1 -23z m387 -59 c0 -5 -7 -14 -15 -21 -22 -19 -18 -30 11 -30 l27 0 -6
-67 c-8 -114 -102 -333 -142 -333 -24 0 -99 84 -133 148 l-34 63 28 40 c15 22
25 42 22 45 -3 3 -15 -10 -26 -28 -12 -18 -39 -50 -61 -72 l-40 -39 -11 44
c-7 24 -16 49 -21 55 -5 6 -6 14 -2 18 4 4 10 28 13 53 l5 47 75 19 c41 10 79
23 85 28 15 15 23 10 18 -11 -7 -27 1 -26 104 15 96 37 103 39 103 26z m90
-240 c52 -161 65 -241 65 -413 0 -86 -3 -160 -7 -164 -5 -4 -47 5 -95 19 -89
26 -347 96 -436 118 -29 7 -46 16 -42 23 3 6 8 18 11 27 3 9 29 20 67 28 114
24 201 83 271 184 41 59 106 231 106 280 0 31 0 31 15 10 8 -12 28 -62 45
-112z m-355 -77 c36 -65 107 -144 128 -144 6 0 -4 -15 -22 -34 -43 -45 -134
-85 -229 -102 -106 -18 -284 -18 -352 1 -30 9 -59 16 -65 15 -5 0 -40 -3 -76
-6 -43 -4 -74 -2 -88 6 -53 28 -79 129 -46 177 51 72 181 83 234 19 12 -14 27
-16 119 -10 l104 7 -7 -60 c-6 -58 4 -89 20 -63 4 7 11 8 18 1 20 -16 67 0 82
28 7 15 19 54 26 88 10 47 18 64 38 76 14 8 37 27 50 41 14 14 26 26 27 26 1
0 19 -30 39 -66z m-480 -293 c22 -6 105 -11 184 -11 l144 0 -23 -26 c-24 -25
-26 -25 -130 -19 -111 7 -241 30 -275 47 -19 11 -19 11 0 19 21 9 34 7 100
-10z m-85 -86 c24 -63 65 -139 95 -180 l34 -44 -102 -57 c-56 -31 -117 -66
-136 -76 l-34 -19 -30 28 c-31 29 -112 145 -141 200 -19 38 -21 77 -3 70 89
-33 80 -34 154 11 37 22 84 52 103 66 44 32 48 32 60 1z"/>
<path d="M1075 1861 c-62 -28 -80 -54 -80 -116 0 -58 25 -98 69 -109 39 -10
125 10 151 34 49 46 23 160 -45 195 -37 19 -46 19 -95 -4z m23 -65 c-2 -16
-11 -22 -40 -24 -46 -4 -51 16 -12 47 21 17 30 19 41 9 8 -6 13 -21 11 -32z
m97 -113 c-34 -30 -133 -33 -157 -5 -36 41 -30 47 46 47 43 0 83 6 101 15 29
15 30 15 33 -10 3 -17 -4 -31 -23 -47z"/>
<path d="M770 1481 c0 -6 5 -13 10 -16 6 -3 10 1 10 9 0 9 -4 16 -10 16 -5 0
-10 -4 -10 -9z"/>
<path d="M815 1380 c-10 -11 -16 -22 -13 -25 3 -3 13 4 23 15 10 11 16 22 13
25 -3 3 -13 -4 -23 -15z"/>
<path d="M819 1346 c-21 -46 15 -103 51 -81 16 10 12 56 -7 77 -20 22 -1 24
21 2 36 -35 34 -94 -4 -106 l-25 -7 25 2 c16 1 29 12 38 30 12 24 11 33 -5 65
-14 30 -24 38 -50 40 -27 3 -35 -1 -44 -22z m21 -32 c0 -8 -4 -12 -10 -9 -5 3
-10 10 -10 16 0 5 5 9 10 9 6 0 10 -7 10 -16z"/>
<path d="M625 1306 c-10 -15 -15 -40 -13 -68 3 -40 5 -43 33 -45 28 -2 28 -1
5 5 -18 6 -26 16 -28 36 -5 39 5 73 22 79 13 5 13 2 4 -18 -14 -32 4 -78 29
-73 29 5 39 52 19 82 -21 33 -51 33 -71 2z m45 -26 c0 -5 -4 -10 -10 -10 -5 0
-10 5 -10 10 0 6 5 10 10 10 6 0 10 -4 10 -10z"/>
<path d="M779 1183 c-13 -16 -12 -17 4 -4 9 7 17 15 17 17 0 8 -8 3 -21 -13z"/>
<path d="M1388 2459 c-36 -18 -50 -39 -28 -39 22 0 90 41 85 50 -8 13 -14 12
-57 -11z"/>
<path d="M453 2193 c9 -2 23 -2 30 0 6 3 -1 5 -18 5 -16 0 -22 -2 -12 -5z"/>
<path d="M612 2039 c5 -15 50 -43 86 -54 39 -11 24 10 -25 35 -67 34 -66 34
-61 19z"/>
<path d="M405 1059 c-4 -6 -5 -12 -2 -15 2 -3 7 2 10 11 7 17 1 20 -8 4z"/>
</g>
</svg>
